<svg data-v-423bf9ae="" xmlns="http://www.w3.org/2000/svg" viewBox="0 0 414.0000473947254 163" class="iconAbove"><!----><!----><!----><g data-v-423bf9ae="" id="087420b3-6727-4f1c-9a99-e976a6f3fd97" fill="white" transform="matrix(6.060606294135134,0,0,6.060606294135134,-4.666660387508898,100.21212483901914)"><path d="M4.00 10.36C6.12 10.36 7.24 8.92 7.24 7.56C7.24 6.16 6.17 5.33 4.65 4.96L3.35 4.65C1.90 4.31 1.76 3.54 1.76 3.09C1.76 2.02 2.79 1.33 3.88 1.33C5.04 1.33 5.92 2.02 5.98 3.08L6.90 3.08C6.85 1.47 5.54 0.46 3.91 0.46C2.31 0.46 0.84 1.50 0.84 3.09C0.84 3.86 1.13 5.03 3.12 5.50L4.42 5.81C5.38 6.05 6.31 6.55 6.31 7.60C6.31 8.51 5.54 9.49 4.00 9.49C2.65 9.49 1.78 8.58 1.68 7.63L0.77 7.63C0.84 9.03 2.11 10.36 4.00 10.36ZM16.88 3.54C16.09 3.54 14.95 3.81 14.48 5.11C14.11 4.10 13.24 3.54 12.18 3.54C11.21 3.54 10.28 3.99 9.94 4.86L9.94 3.68L9.04 3.68L9.04 10.22L9.94 10.22L9.94 6.59C9.97 5.03 10.98 4.41 12.03 4.41C13.06 4.41 13.82 5.18 13.82 6.45L13.82 10.22L14.70 10.22L14.70 6.83L14.71 6.89C14.62 5.29 15.51 4.40 16.74 4.41C17.82 4.41 18.58 5.19 18.58 6.45L18.58 10.22L19.47 10.22L19.47 6.41C19.47 4.61 18.47 3.54 16.88 3.54ZM27.10 3.68L27.10 4.94C26.61 4.06 25.61 3.54 24.50 3.54C22.67 3.54 21.18 4.96 21.18 6.94C21.18 8.93 22.68 10.36 24.50 10.36C25.59 10.36 26.61 9.84 27.10 8.95L27.10 10.22L28 10.22L28 3.68ZM24.57 9.51C23.20 9.51 22.08 8.39 22.08 6.93C22.08 5.49 23.20 4.40 24.57 4.40C25.87 4.40 27.10 5.39 27.10 6.97C27.10 8.48 25.93 9.51 24.57 9.51ZM33.19 3.54C32.17 3.54 31.47 4.17 31.15 5.28L31.15 3.68L30.24 3.68L30.24 10.22L31.15 10.22L31.15 7.76C31.15 6.15 31.63 4.41 33.18 4.41C33.42 4.41 33.73 4.45 34.06 4.59L34.23 3.74C33.98 3.61 33.56 3.54 33.19 3.54ZM38.30 3.68L36.81 3.68L36.81 1.08L35.92 1.08L35.92 3.68L34.73 3.68L34.73 4.45L35.92 4.45L35.92 10.22L36.81 10.22L36.81 4.45L38.30 4.45ZM46.23 0.57L46.23 5.01L40.92 5.01L40.92 0.57L40.00 0.57L40.00 10.22L40.92 10.22L40.92 5.84L46.23 5.84L46.23 10.22L47.15 10.22L47.15 0.57ZM60.98 10.22L59.78 0.57L58.93 0.57L55.22 8.23L51.51 0.57L50.64 0.57L49.45 10.22L50.34 10.22L51.34 2.20L54.80 9.23L55.65 9.23L59.08 2.23L60.07 10.22ZM65.84 10.36C67.96 10.36 69.08 8.92 69.08 7.56C69.08 6.16 68.01 5.33 66.49 4.96L65.18 4.65C63.74 4.31 63.60 3.54 63.60 3.09C63.60 2.02 64.62 1.33 65.72 1.33C66.88 1.33 67.76 2.02 67.82 3.08L68.74 3.08C68.68 1.47 67.38 0.46 65.74 0.46C64.15 0.46 62.68 1.50 62.68 3.09C62.68 3.86 62.97 5.03 64.96 5.50L66.26 5.81C67.21 6.05 68.15 6.55 68.15 7.60C68.15 8.51 67.38 9.49 65.84 9.49C64.48 9.49 63.62 8.58 63.52 7.63L62.61 7.63C62.68 9.03 63.95 10.36 65.84 10.36Z"></path></g><!----><g data-v-423bf9ae="" id="bc2a150b-ed70-4364-8300-f259f5ff3343" transform="matrix(2.8125,0,0,2.8125,163,0)" stroke="none" fill="white"><path d="M0 32h32V0H0v32zm19.377-19.492l6.936-6.936v20.855h-6.936V12.508zM5.688 5.572l6.936 6.936v13.919H5.688V5.572z"></path></g><!----></svg>